<?xml version="1.0" encoding="UTF-8" standalone="no"?>
<!-- Created with Inkscape (http://www.inkscape.org/) -->

<svg
   xmlns:dc="http://purl.org/dc/elements/1.1/"
   xmlns:cc="http://creativecommons.org/ns#"
   xmlns:rdf="http://www.w3.org/1999/02/22-rdf-syntax-ns#"
   xmlns:svg="http://www.w3.org/2000/svg"
   xmlns="http://www.w3.org/2000/svg"
   xmlns:sodipodi="http://sodipodi.sourceforge.net/DTD/sodipodi-0.dtd"
   xmlns:inkscape="http://www.inkscape.org/namespaces/inkscape"
   width="77.685715mm"
   height="140.93565mm"
   viewBox="0 0 275.26434 499.3783"
   id="svg2"
   version="1.1"
   inkscape:version="0.91 r13725"
   sodipodi:docname="logo.svg"
   inkscape:export-filename="/Users/bryan/Projects/nebrius.github.io/logo.png"
   inkscape:export-xdpi="72"
   inkscape:export-ydpi="72">
  <defs
     id="defs4" />
  <sodipodi:namedview
     id="base"
     pagecolor="#ffffff"
     bordercolor="#666666"
     borderopacity="1.0"
     inkscape:pageopacity="0.0"
     inkscape:pageshadow="2"
     inkscape:zoom="1.979899"
     inkscape:cx="103.30004"
     inkscape:cy="257.16934"
     inkscape:document-units="px"
     inkscape:current-layer="layer1"
     showgrid="false"
     inkscape:window-width="2514"
     inkscape:window-height="1396"
     inkscape:window-x="46"
     inkscape:window-y="0"
     inkscape:window-maximized="1"
     fit-margin-top="0"
     fit-margin-left="0"
     fit-margin-right="0"
     fit-margin-bottom="0" />
  <metadata
     id="metadata7">
    <rdf:RDF>
      <cc:Work
         rdf:about="">
        <dc:format>image/svg+xml</dc:format>
        <dc:type
           rdf:resource="http://purl.org/dc/dcmitype/StillImage" />
        <dc:title />
      </cc:Work>
    </rdf:RDF>
  </metadata>
  <g
     inkscape:label="Layer 1"
     inkscape:groupmode="layer"
     id="layer1"
     transform="translate(-200.00001,-195.09788)">
    <ellipse
       style="fill:none;fill-rule:evenodd;stroke:#000000;stroke-width:20;stroke-linecap:butt;stroke-linejoin:miter;stroke-miterlimit:4;stroke-dasharray:none;stroke-opacity:1"
       id="path3336"
       cx="237.63217"
       cy="232.73004"
       rx="27.632166"
       ry="27.632164" />
    <ellipse
       ry="27.632164"
       rx="27.632166"
       cy="232.73004"
       cx="437.63217"
       id="ellipse4165"
       style="fill:none;fill-rule:evenodd;stroke:#000000;stroke-width:20;stroke-linecap:butt;stroke-linejoin:miter;stroke-miterlimit:4;stroke-dasharray:none;stroke-opacity:1" />
    <ellipse
       ry="27.632164"
       rx="27.632166"
       cy="-656.84399"
       cx="237.63217"
       id="ellipse4187"
       style="fill:none;fill-rule:evenodd;stroke:#000000;stroke-width:20;stroke-linecap:butt;stroke-linejoin:miter;stroke-miterlimit:4;stroke-dasharray:none;stroke-opacity:1"
       transform="scale(1,-1)" />
    <ellipse
       style="fill:none;fill-rule:evenodd;stroke:#000000;stroke-width:20;stroke-linecap:butt;stroke-linejoin:miter;stroke-miterlimit:4;stroke-dasharray:none;stroke-opacity:1"
       id="ellipse4191"
       cx="437.63217"
       cy="-656.84399"
       rx="27.632166"
       ry="27.632164"
       transform="scale(1,-1)" />
    <g
       id="g4153">
      <path
         inkscape:connector-curvature="0"
         id="path4285"
         d="m 375.72389,515.9037 -31.48444,-32.4813 0.0205,-38.70465 0.0205,-38.70464 31.63242,-32.58056 31.63242,-32.58055 5.33043,3.92067 c 6.3483,4.66932 19.1761,17.13383 23.65942,22.98934 14.57174,19.0317 22.73733,38.45788 25.80055,61.38024 1.06142,7.94272 1.05307,23.53982 -0.017,31.57029 -3.79606,28.49055 -17.64048,55.37477 -38.60841,74.97308 -5.12622,4.79139 -15.1433,12.69938 -16.08632,12.69938 -0.22875,0 -14.58388,-14.61659 -31.90033,-32.4813 z"
         style="fill:#9b4f96;fill-opacity:1;stroke:none;stroke-width:0.51499999;stroke-linejoin:round;stroke-miterlimit:4;stroke-dasharray:none;stroke-opacity:1" />
      <path
         inkscape:connector-curvature="0"
         id="path4281"
         d="m 327.13648,569.77031 c -13.53251,-1.60249 -23.57542,-3.83568 -32.72103,-7.27595 -7.03975,-2.64813 -13.20375,-5.52956 -13.0199,-6.0863 0.0842,-0.25525 12.72378,-13.76713 28.08779,-30.02639 26.85237,-28.41705 27.97032,-29.52577 28.85766,-28.61964 0.50771,0.51846 13.28028,14.00769 28.38349,29.97606 l 27.46036,29.0334 -2.95022,1.4169 c -11.96487,5.74629 -27.43761,10.00911 -41.25768,11.36671 -5.225,0.51328 -19.21066,0.64506 -22.84047,0.21521 z"
         style="fill:#0038a8;fill-opacity:1;stroke:none;stroke-width:0.50507629;stroke-linejoin:round;stroke-miterlimit:4;stroke-dasharray:none;stroke-opacity:1" />
      <path
         inkscape:connector-curvature="0"
         id="path4283"
         d="m 262.59697,544.88263 c -15.95026,-12.01436 -28.30859,-27.01622 -37.33038,-45.31562 -20.02918,-40.62632 -16.3118,-89.01988 9.70021,-126.27954 5.9768,-8.56118 13.74419,-17.19666 20.81926,-23.14601 5.09352,-4.2831 11.07969,-8.80732 11.65328,-8.80732 0.22833,0 14.45313,14.61031 31.61065,32.46737 l 31.1955,32.46737 0,38.50399 0,38.50398 -31.13123,32.4296 c -17.12218,17.83629 -31.30136,32.48226 -31.50929,32.54662 -0.20793,0.0644 -2.46153,-1.45234 -5.008,-3.37044 z"
         style="fill:#9b4f96;fill-opacity:1;stroke:none;stroke-width:0.50507629;stroke-linejoin:round;stroke-miterlimit:4;stroke-dasharray:none;stroke-opacity:1" />
      <path
         inkscape:connector-curvature="0"
         id="path4279"
         d="m 309.10177,363.0325 -28.39262,-30.52538 2.15344,-1.1336 c 7.97632,-4.19889 22.18888,-8.79538 33.66199,-10.88666 8.03698,-1.46495 25.57955,-2.02052 34.35285,-1.08794 13.63163,1.44899 27.11647,5.25816 40.56729,11.4594 l 3.00845,1.38699 -27.6391,29.7319 c -15.20152,16.35256 -28.01724,30.14788 -28.47941,30.65628 -0.78602,0.86466 -2.67399,-1.04708 -29.23289,-29.60099 z"
         style="fill:#d60270;fill-opacity:1;stroke:none;stroke-width:0.51878637;stroke-linejoin:round;stroke-miterlimit:4;stroke-dasharray:none;stroke-opacity:1" />
      <circle
         r="125.188"
         cy="444.78702"
         cx="337.63217"
         id="path4223"
         style="fill:none;stroke:#000000;stroke-width:5;stroke-linejoin:round;stroke-miterlimit:4;stroke-dasharray:none;stroke-opacity:1" />
    </g>
    <circle
       style="fill:none;stroke-width:16;stroke-linejoin:round;stroke-miterlimit:4;stroke-dasharray:none"
       id="path4219"
       cx="301.02545"
       cy="536.67932"
       r="98.994949" />
    <path
       sodipodi:nodetypes="ccccc"
       inkscape:connector-curvature="0"
       id="path4189"
       d="m 237.26389,638.44066 0,-47.37581 100.17483,-104.94188 100.17483,104.94188 0,47.37581"
       style="fill:none;fill-rule:evenodd;stroke:#000000;stroke-width:16;stroke-linecap:butt;stroke-linejoin:round;stroke-miterlimit:4;stroke-dasharray:none;stroke-opacity:1" />
    <path
       style="fill:none;fill-rule:evenodd;stroke:#000000;stroke-width:16;stroke-linecap:butt;stroke-linejoin:round;stroke-miterlimit:4;stroke-dasharray:none;stroke-opacity:1"
       d="m 237.26389,251.13339 0,47.37581 100.17483,104.94188 100.17483,-104.94188 0,-47.37581"
       id="path4160"
       inkscape:connector-curvature="0"
       sodipodi:nodetypes="ccccc" />
    <path
       style="fill:none;fill-rule:evenodd;stroke:#000000;stroke-width:20;stroke-linecap:butt;stroke-linejoin:miter;stroke-miterlimit:4;stroke-dasharray:none;stroke-opacity:1"
       d="m 337.64349,402.83412 c 0,86.36804 0,86.62058 0,86.62058"
       id="path4195"
       inkscape:connector-curvature="0" />
  </g>
</svg>
